<?xml version="1.0" encoding="UTF-8"?>
<svg width="1553px" height="800px" viewBox="0 0 1553 800" version="1.1" xmlns="http://www.w3.org/2000/svg" xmlns:xlink="http://www.w3.org/1999/xlink">
    <!-- Generator: Sketch 58 (84663) - https://sketch.com -->
    <title>logo-GTCR-white</title>
    <desc>Created with Sketch.</desc>
    <defs>
        <linearGradient x1="50%" y1="0%" x2="50%" y2="100%" id="linearGradient-1">
            <stop stop-color="#9013FE" offset="0%"></stop>
            <stop stop-color="#4D00B4" offset="100%"></stop>
        </linearGradient>
    </defs>
    <g id="logo-GTCR-white" stroke="none" stroke-width="1" fill="none" fill-rule="evenodd">
        <g id="Group-155" transform="translate(27.000000, 19.000000)">
            <g id="Group-152">
                <g id="Group-139">
                    <g id="Group-3">
                        <path d="M404.4,13.5099963 L687.555679,176.990004 C702.035649,185.350019 710.955679,200.799963 710.955679,217.519993 L710.955679,544.480007 C710.955679,561.200037 702.035649,576.649981 687.555679,585.009996 L404.4,748.490004 C389.92003,756.850019 372.07997,756.850019 357.6,748.490004 L74.4443212,585.009996 C59.9643508,576.649981 51.0443212,561.200037 51.0443212,544.480007 L51.0443212,217.519993 C51.0443212,200.799963 59.9643508,185.350019 74.4443212,176.990004 L357.6,13.5099963 C372.07997,5.1499815 389.92003,5.1499815 404.4,13.5099963 Z" id="Polygon" fill="#AE52FF"></path>
                        <path d="M403.8,47.1099963 L657.33761,193.490004 C671.81758,201.850019 680.73761,217.299963 680.73761,234.019993 L680.73761,526.780007 C680.73761,543.500037 671.81758,558.949981 657.33761,567.309996 L403.8,713.690004 C389.32003,722.050019 371.47997,722.050019 357,713.690004 L103.46239,567.309996 C88.9824196,558.949981 80.06239,543.500037 80.06239,526.780007 L80.06239,234.019993 C80.06239,217.299963 88.9824196,201.850019 103.46239,193.490004 L357,47.1099963 C371.47997,38.7499815 389.32003,38.7499815 403.8,47.1099963 Z" id="Polygon" fill="url(#linearGradient-1)" transform="translate(380.400000, 380.400000) scale(1, -1) translate(-380.400000, -380.400000) "></path>
                        <g id="Group-137" transform="translate(189.600000, 196.800000)" fill="#9013FE">
                            <rect id="Rectangle" x="0" y="0" width="381.6" height="21.6"></rect>
                            <rect id="Rectangle" x="0" y="68.4" width="381.6" height="21.6"></rect>
                            <rect id="Rectangle" x="0" y="136.8" width="381.6" height="21.6"></rect>
                            <rect id="Rectangle" x="0" y="205.2" width="381.6" height="21.6"></rect>
                            <rect id="Rectangle" x="0" y="273.6" width="381.6" height="21.6"></rect>
                        </g>
                        <path d="M375.450036,722.583511 L105.649742,570.461073 C95.5469886,564.764803 91.9748283,551.957163 97.6710991,541.854409 C99.5477838,538.525971 102.297038,535.772647 105.622696,533.891042 L380.8,378.2 L380.8,378.2 L651.889237,533.683574 C661.949891,539.453875 665.42791,552.2874 659.657609,562.348054 C657.803365,565.580971 655.122154,568.262182 651.889237,570.116426 L386.12767,722.544308 C382.824289,724.438966 378.76724,724.453862 375.450036,722.583511 Z" id="Path-114" fill="#4D00B4"></path>
                        <path d="M210.70848,533.080472 L454.30848,681.880472 C458.550288,684.471526 464.089417,683.133327 466.680472,678.89152 C469.271526,674.649712 467.933327,669.110583 463.69152,666.519528 L220.09152,517.719528 C215.849712,515.128474 210.310583,516.466673 207.719528,520.70848 C205.128474,524.950288 206.466673,530.489417 210.70848,533.080472 Z" id="Path-115" fill="#9013FE" fill-rule="nonzero"></path>
                        <path d="M357.10848,449.080472 L600.70848,597.880472 C604.950288,600.471526 610.489417,599.133327 613.080472,594.89152 C615.671526,590.649712 614.333327,585.110583 610.09152,582.519528 L366.49152,433.719528 C362.249712,431.128474 356.710583,432.466673 354.119528,436.70848 C351.528474,440.950288 352.866673,446.489417 357.10848,449.080472 Z" id="Path-115" fill="#9013FE" fill-rule="nonzero"></path>
                        <g id="Group-142" transform="translate(265.200000, 139.200000)">
                            <path d="M122.398389,4.1547519 L223.198389,62.3342974 C227.654672,64.9063662 230.4,69.6607041 230.4,74.8059932 L230.4,306.794007 C230.4,311.939296 227.654672,316.693634 223.198389,319.265703 L122.398389,377.445248 C117.943832,380.01632 112.456168,380.01632 108.001611,377.445248 L7.20161114,319.265703 C2.74532773,316.693634 2.29711795e-14,311.939296 0,306.794007 L0,74.8059932 C-1.23054783e-14,69.6607041 2.74532773,64.9063662 7.20161114,62.3342974 L108.001611,4.1547519 C112.456168,1.58367973 117.943832,1.58367973 122.398389,4.1547519 Z" id="Polygon" fill="#FFFFFF" transform="translate(115.200000, 190.800000) scale(1, -1) translate(-115.200000, -190.800000) "></path>
                            <g id="check-solid" transform="translate(57.600000, 68.400000)" fill="#4D00B4" fill-rule="nonzero">
                                <path d="M38.7194587,83.5266749 L1.66942253,46.3943607 C-0.556474176,44.1635209 -0.556474176,40.5464675 1.66942253,38.3154046 L9.73025462,30.2364484 C11.9561513,28.0053855 15.5654127,28.0053855 17.7913094,30.2364484 L42.7499861,55.2503284 L96.2086906,1.67312986 C98.4345873,-0.557709953 102.043849,-0.557709953 104.269745,1.67312986 L112.330577,9.752086 C114.556474,11.9829258 114.556474,15.5999792 112.330577,17.8310421 L46.7805135,83.526898 C44.5543941,85.7577378 40.9453554,85.7577378 38.7194587,83.5266749 L38.7194587,83.5266749 Z" id="Path"></path>
                            </g>
                        </g>
                        <g id="Group-153" transform="translate(134.400000, 388.800000)">
                            <g id="Group-142" fill="#EBD4FF">
                                <path d="M109.8,4.15692194 L184.254206,47.1430781 C188.709582,49.7153903 191.454206,54.4692194 191.454206,59.6138439 L191.454206,145.586156 C191.454206,150.730781 188.709582,155.48461 184.254206,158.056922 L109.8,201.043078 C105.344624,203.61539 99.8553755,203.61539 95.4,201.043078 L20.9457936,158.056922 C16.4904181,155.48461 13.7457936,150.730781 13.7457936,145.586156 L13.7457936,59.6138439 C13.7457936,54.4692194 16.4904181,49.7153903 20.9457936,47.1430781 L95.4,4.15692194 C99.8553755,1.58460969 105.344624,1.58460969 109.8,4.15692194 Z" id="Polygon" transform="translate(102.600000, 102.600000) scale(1, -1) translate(-102.600000, -102.600000) "></path>
                            </g>
                            <path d="M102.6,144 C125.464589,144 144,125.464589 144,102.6 C144,79.7354114 125.464589,61.2 102.6,61.2 C79.7354114,61.2 61.2,79.7354114 61.2,102.6 C61.2,125.464589 79.7354114,144 102.6,144 Z M102.6,129.6 C87.6883118,129.6 75.6,117.511688 75.6,102.6 C75.6,87.6883118 87.6883118,75.6 102.6,75.6 C117.511688,75.6 129.6,87.6883118 129.6,102.6 C129.6,117.511688 117.511688,129.6 102.6,129.6 Z" id="Oval" fill="#9013FE" fill-rule="nonzero"></path>
                        </g>
                    </g>
                </g>
                <circle id="Oval" fill="#FFFFFF" cx="462.5" cy="501.5" r="8.5"></circle>
                <circle id="Oval" fill="#FFFFFF" cx="483.5" cy="514.5" r="8.5"></circle>
                <circle id="Oval" fill="#FFFFFF" cx="505.5" cy="527.5" r="8.5"></circle>
                <circle id="Oval" fill="#FFFFFF" cx="588.5" cy="579.5" r="8.5"></circle>
                <circle id="Oval" fill="#FFFFFF" cx="313.5" cy="583.5" r="8.5"></circle>
                <circle id="Oval" fill="#FFFFFF" cx="386.5" cy="630.5" r="8.5"></circle>
                <circle id="Oval" fill="#FFFFFF" cx="408.5" cy="642.5" r="8.5"></circle>
            </g>
            <path d="M967.359841,377.10917 L1046,377.10917 L1046,383.408609 C1046,397.736815 1044.31546,410.417911 1040.94632,421.452277 C1037.65936,431.663183 1032.1127,441.215177 1024.30616,450.108546 C1006.63875,470.036282 984.164484,480 956.882704,480 C930.258316,480 907.455363,470.365661 888.473161,451.096694 C869.490959,431.74538 860,408.524153 860,381.432314 C860,353.764054 869.655304,330.295792 888.966203,311.026825 C908.277101,291.675511 931.778523,282 959.471173,282 C974.344673,282 988.231877,285.046757 1001.1332,291.140362 C1013.45931,297.233967 1025.57979,307.11534 1037.49503,320.784779 L1017.0338,340.424205 C1001.42073,319.590663 982.397726,309.174049 959.964215,309.174049 C940.151142,309.174049 923.481962,315.913042 909.956194,329.391229 L909.304175,330.048659 C895.663285,343.718097 888.842942,360.845811 888.842942,381.432314 C888.842942,402.677586 896.443927,420.175851 911.646123,433.927636 C925.862231,446.691268 941.269632,453.072988 957.868787,453.072988 C972.002721,453.072988 984.69842,448.296991 995.956262,438.744853 C1007.21411,429.11037 1013.50032,417.582101 1014.81511,404.159701 L967.359841,404.159701 L967.359841,377.10917 Z M1134.25732,312.662953 L1134.25732,476.4 L1105.46624,476.4 L1105.46624,312.662953 L1061.6,312.662953 L1061.6,285.6 L1178,285.6 L1178,312.662953 L1134.25732,312.662953 Z M1288.09261,282 C1305.16987,282 1321.67217,286.655384 1337.6,295.966292 L1337.6,330.078652 C1321.01535,316.153488 1303.85625,309.191011 1286.12217,309.191011 C1266.58184,309.191011 1250.12059,316.235885 1236.73793,330.325843 C1223.27317,344.333403 1216.54089,361.471809 1216.54089,381.741573 C1216.54089,401.764145 1223.27317,418.655362 1236.73793,432.41573 C1250.20269,446.176099 1266.70499,453.05618 1286.24532,453.05618 C1296.34389,453.05618 1304.92345,451.408256 1311.98424,448.11236 C1315.92514,446.464411 1320.00967,444.239714 1324.23793,441.438202 C1328.4662,438.63669 1332.92017,435.258447 1337.6,431.303371 L1337.6,466.033708 C1321.17956,475.344616 1303.93835,480 1285.87586,480 C1258.70003,480 1235.5065,470.483241 1216.29458,451.449438 C1197.16476,432.25084 1187.6,409.097514 1187.6,381.988764 C1187.6,357.681526 1195.60485,336.011331 1211.61478,316.977528 C1231.31931,293.659059 1256.81167,282 1288.09261,282 Z M1408.50909,285.6 C1433.69843,285.6 1451.89045,290.336999 1463.08571,299.81114 C1475.43343,310.35627 1481.60719,324.278929 1481.60719,341.579534 C1481.60719,355.090482 1477.7383,366.706428 1470.0004,376.42772 C1462.2625,386.149012 1452.05521,392.368898 1439.37822,395.087565 L1498.4,476.4 L1463.20919,476.4 L1408.75604,398.300518 L1403.57003,398.300518 L1403.57003,476.4 L1374.8,476.4 L1374.8,285.6 L1408.50909,285.6 Z M1413.92889,313.2 L1403.6,313.2 L1403.6,373.2 L1412.80889,373.2 C1440.26977,373.2 1454,362.873573 1454,342.220408 C1454,322.873373 1440.6431,313.2 1413.92889,313.2 L1413.92889,313.2 Z" id="GTCR" fill="#FFFFFF" fill-rule="nonzero"></path>
        </g>
    </g>
</svg>