<?xml version="1.0" encoding="UTF-8"?>
<svg width="1907px" height="800px" viewBox="0 0 1907 800" version="1.1" xmlns="http://www.w3.org/2000/svg" xmlns:xlink="http://www.w3.org/1999/xlink">
    <!-- Generator: Sketch 58 (84663) - https://sketch.com -->
    <title>logo-CURATE-white</title>
    <desc>Created with Sketch.</desc>
    <defs>
        <linearGradient x1="50%" y1="0%" x2="50%" y2="100%" id="linearGradient-1">
            <stop stop-color="#9013FE" offset="0%"></stop>
            <stop stop-color="#4D00B4" offset="100%"></stop>
        </linearGradient>
    </defs>
    <g id="logo-CURATE-white" stroke="none" stroke-width="1" fill="none" fill-rule="evenodd">
        <g id="CURATE-LOGO" transform="translate(41.000000, 19.000000)">
            <g id="Group-152">
                <path d="M387.991997,4.00593466 L704.112878,186.493236 C708.407867,188.972607 711.053753,193.555101 711.053753,198.514356 L711.053753,563.485644 C711.053753,568.444899 708.407867,573.027393 704.112878,575.506764 L387.991997,757.994065 C383.697778,760.472992 378.407338,760.472992 374.113118,757.994065 L57.992238,575.506764 C53.697249,573.027393 51.0513626,568.444899 51.0513626,563.485644 L51.0513626,198.514356 C51.0513626,193.555101 53.697249,188.972607 57.992238,186.493236 L374.113118,4.00593466 C378.407338,1.52700786 383.697778,1.52700786 387.991997,4.00593466 Z" id="Polygon" fill="#AE52FF"></path>
                <path d="M387.391915,37.6059347 L673.89064,202.993236 C678.185629,205.472607 680.831516,210.055101 680.831516,215.014356 L680.831516,545.785644 C680.831516,550.744899 678.185629,555.327393 673.89064,557.806764 L387.391915,723.194065 C383.097695,725.672992 377.807255,725.672992 373.513036,723.194065 L87.0143098,557.806764 C82.7193208,555.327393 80.0734343,550.744899 80.0734343,545.785644 L80.0734343,215.014356 C80.0734343,210.055101 82.7193208,205.472607 87.0143098,202.993236 L373.513036,37.6059347 C377.807255,35.1270079 383.097695,35.1270079 387.391915,37.6059347 Z" id="Polygon" fill="url(#linearGradient-1)" transform="translate(380.452475, 380.400000) scale(1, -1) translate(-380.452475, -380.400000) "></path>
                <rect id="Rectangle" fill="#9013FE" x="189.626155" y="196.8" width="381.652641" height="21.6"></rect>
                <rect id="Rectangle" fill="#9013FE" x="189.626155" y="265.2" width="381.652641" height="21.6"></rect>
                <rect id="Rectangle" fill="#9013FE" x="189.626155" y="333.6" width="381.652641" height="21.6"></rect>
                <rect id="Rectangle" fill="#9013FE" x="189.626155" y="402" width="381.652641" height="21.6"></rect>
                <rect id="Rectangle" fill="#9013FE" x="189.626155" y="470.4" width="381.652641" height="21.6"></rect>
                <path d="M381.266238,728.705563 L80.2136911,558.985471 C78.6726574,558.116705 78.1276772,556.163176 78.9964437,554.622142 C79.2827293,554.114323 79.7021714,553.69426 80.209566,553.407224 L382.852806,382.2 L382.852806,382.2 L680.899251,553.121337 C682.433864,554.001395 682.964486,555.958873 682.084428,557.493486 C681.801564,557.986735 681.3925,558.395799 680.899251,558.678663 L384.432765,728.693938 C383.453106,729.255745 382.249995,729.260162 381.266238,728.705563 Z" id="Path-114" fill="#4D00B4"></path>
                <path d="M221.302844,535.520314 L464.936448,684.320314 C467.76471,686.047684 471.457972,685.155551 473.18558,682.32768 C474.913188,679.499808 474.020932,675.807055 471.19267,674.079686 L227.559066,525.279686 C224.730805,523.552316 221.037543,524.444449 219.309935,527.27232 C217.582326,530.100192 218.474582,533.792945 221.302844,535.520314 Z" id="Path-115" fill="#9013FE" fill-rule="nonzero"></path>
                <path d="M367.72304,451.520314 L611.356643,600.320314 C614.184905,602.047684 617.878167,601.155551 619.605775,598.32768 C621.333383,595.499808 620.441127,591.807055 617.612866,590.079686 L373.979262,441.279686 C371.151,439.552316 367.457738,440.444449 365.73013,443.27232 C364.002522,446.100192 364.894778,449.792945 367.72304,451.520314 Z" id="Path-115" fill="#9013FE" fill-rule="nonzero"></path>
                <path d="M382.587209,140.431952 L493.532235,204.458151 C494.854039,205.220962 495.668367,206.631111 495.668367,208.157233 L495.668367,451.842767 C495.668367,453.368889 494.854039,454.779038 493.532235,455.541849 L382.587209,519.568048 C381.266154,520.330427 379.638796,520.330427 378.317741,519.568048 L267.372715,455.541849 C266.050911,454.779038 265.236584,453.368889 265.236584,451.842767 L265.236584,208.157233 C265.236584,206.631111 266.050911,205.220962 267.372715,204.458151 L378.317741,140.431952 C379.638796,139.669573 381.266154,139.669573 382.587209,140.431952 Z" id="Polygon" fill="#FFFFFF" transform="translate(380.452475, 330.000000) scale(1, -1) translate(-380.452475, -330.000000) "></path>
                <path d="M361.569329,291.126675 L324.514182,253.994361 C322.287978,251.763521 322.287978,248.146468 324.514182,245.915405 L332.576126,237.836448 C334.80233,235.605385 338.412089,235.605385 340.638293,237.836448 L365.600413,262.850328 L419.066492,209.27313 C421.292695,207.04229 424.902455,207.04229 427.128658,209.27313 L435.190602,217.352086 C437.416806,219.582926 437.416806,223.199979 435.190602,225.431042 L369.631496,291.126898 C367.40507,293.357738 363.795533,293.357738 361.569329,291.126675 L361.569329,291.126675 Z" id="Path" fill="#4D00B4" fill-rule="nonzero"></path>
                <path d="M239.167906,390.032595 L323.763503,438.86715 C325.085038,439.630033 325.899157,441.040031 325.899157,442.565956 L325.899157,540.234044 C325.899157,541.759969 325.085038,543.169967 323.763503,543.93285 L239.167906,592.767405 C237.846607,593.530151 236.21878,593.530151 234.897481,592.767405 L150.301884,543.93285 C148.980349,543.169967 148.16623,541.759969 148.16623,540.234044 L148.16623,442.565956 C148.16623,441.040031 148.980349,439.630033 150.301884,438.86715 L234.897481,390.032595 C236.21878,389.269849 237.846607,389.269849 239.167906,390.032595 Z" id="Polygon" fill="#EBD4FF" transform="translate(237.032693, 491.400000) scale(1, -1) translate(-237.032693, -491.400000) "></path>
                <path d="M237.032693,532.8 C259.900436,532.8 278.438404,514.264589 278.438404,491.4 C278.438404,468.535411 259.900436,450 237.032693,450 C214.164951,450 195.626982,468.535411 195.626982,491.4 C195.626982,514.264589 214.164951,532.8 237.032693,532.8 Z M237.032693,518.4 C222.118948,518.4 210.028969,506.311688 210.028969,491.4 C210.028969,476.488312 222.118948,464.4 237.032693,464.4 C251.946439,464.4 264.036418,476.488312 264.036418,491.4 C264.036418,506.311688 251.946439,518.4 237.032693,518.4 Z" id="Oval" fill="#9013FE" fill-rule="nonzero"></path>
                <ellipse id="Oval" fill="#FFFFFF" cx="475.265552" cy="508.8" rx="7.20099322" ry="7.2"></ellipse>
                <ellipse id="Oval" fill="#FFFFFF" cx="493.268035" cy="519.6" rx="7.20099322" ry="7.2"></ellipse>
                <ellipse id="Oval" fill="#FFFFFF" cx="511.270519" cy="530.4" rx="7.20099322" ry="7.2"></ellipse>
                <ellipse id="Oval" fill="#FFFFFF" cx="580.88012" cy="573.6" rx="7.20099322" ry="7.2"></ellipse>
                <ellipse id="Oval" fill="#FFFFFF" cx="309.642708" cy="580.8" rx="7.20099322" ry="7.2"></ellipse>
                <ellipse id="Oval" fill="#FFFFFF" cx="370.851151" cy="619.2" rx="7.20099322" ry="7.2"></ellipse>
                <ellipse id="Oval" fill="#FFFFFF" cx="388.853634" cy="630" rx="7.20099322" ry="7.2"></ellipse>
            </g>
            <path d="M1011.37504,300.624025 L1011.37504,334.21649 C994.966959,320.503556 977.990532,313.647191 960.445253,313.647191 C941.351626,313.647191 925.229545,320.414457 912.07854,333.949189 L911.58677,334.459914 C898.265354,348.253991 891.604746,365.131196 891.604746,385.092036 C891.604746,404.809451 898.265354,421.443235 911.58677,434.993886 C924.908185,448.544538 941.234797,455.319762 960.567095,455.319762 C970.558157,455.319762 979.04637,453.696954 986.03199,450.451289 C989.930941,448.828456 993.971981,446.637665 998.15523,443.87885 C1002.33848,441.120035 1006.74504,437.793278 1011.37504,433.89848 L1011.37504,468.099504 C995.129416,477.268508 978.071762,481.852941 960.20157,481.852941 C933.315055,481.852941 910.368449,472.481224 891.361063,453.737508 C872.434906,434.831509 862.971969,412.031054 862.971969,385.335459 C862.971969,361.39868 870.891594,340.058752 886.731082,321.315036 C906.225836,298.351956 931.446797,286.870588 962.394719,286.870588 C979.290173,286.870588 995.616785,291.455021 1011.37504,300.624025 Z M1073.29228,290.232353 L1073.29228,401.606848 C1073.29228,417.494758 1075.91358,429.111122 1081.15624,436.456286 C1088.97991,447.07484 1099.98934,452.384037 1114.18487,452.384037 C1128.46105,452.384037 1139.51081,447.07484 1147.33447,436.456286 C1152.57714,429.350638 1155.19843,417.734275 1155.19843,401.606848 L1155.19843,290.232353 L1183.3877,290.232353 L1183.3877,409.271329 C1183.3877,428.751983 1177.25791,444.799331 1164.99814,457.413853 C1151.20589,471.465472 1134.26831,478.491176 1114.18487,478.491176 C1094.10143,478.491176 1077.20417,471.465472 1063.49258,457.413853 C1051.23281,444.799331 1045.10302,428.751983 1045.10302,409.271329 L1045.10302,290.232353 L1073.29228,290.232353 Z M1294.04645,396.332608 L1352.02756,475.129412 L1317.45723,475.129412 L1263.96419,399.44616 L1258.86962,399.44616 L1258.86962,475.129412 L1230.60686,475.129412 L1230.60686,290.232353 L1263.7216,290.232353 C1288.4668,290.232353 1306.33806,294.8228 1317.33593,304.003831 C1329.46593,314.222718 1335.53084,327.714639 1335.53084,344.48 C1335.53084,357.572949 1331.73016,368.829523 1324.1287,378.250059 C1316.52723,387.670595 1306.49991,393.698051 1294.04645,396.332608 Z M1257.58924,377.638235 L1266.8332,377.638235 C1294.39867,377.638235 1308.18119,367.22373 1308.18119,346.394406 C1308.18119,326.882351 1294.77342,317.126471 1267.95747,317.126471 L1257.58924,317.126471 L1257.58924,377.638235 Z M1490.3055,433.165738 L1410.09989,433.165738 L1389.22944,478.491176 L1358.77315,478.491176 L1451.47676,280.147059 L1540.9042,478.491176 L1509.96255,478.491176 L1490.3055,433.165738 Z M1476.82105,407.894118 L1448.82468,344.020588 L1419.4835,407.894118 L1476.82105,407.894118 Z M1605.73924,316.458037 L1605.73924,475.129412 L1577.37481,475.129412 L1577.37481,316.458037 L1534.1586,316.458037 L1534.1586,290.232353 L1648.83371,290.232353 L1648.83371,316.458037 L1605.73924,316.458037 Z M1777,316.458037 L1701.03685,316.458037 L1701.03685,360.886022 L1774.79106,360.886022 L1774.79106,387.111706 L1701.03685,387.111706 L1701.03685,448.903728 L1777,448.903728 L1777,475.129412 L1672.44329,475.129412 L1672.44329,290.232353 L1777,290.232353 L1777,316.458037 Z" id="CURATE" fill="#FFFFFF" fill-rule="nonzero"></path>
        </g>
    </g>
</svg>