<svg width="113" height="19" viewBox="0 0 113 19" fill="none" xmlns="http://www.w3.org/2000/svg">
<g clip-path="url(#clip0_24879_270495)">
<path d="M5.85196 0.427155C5.9347 0.172426 6.17172 0 6.43914 0H112.146C112.567 0 112.864 0.412318 112.732 0.812536L107.185 17.6373C107.102 17.8906 106.865 18.0619 106.599 18.0619H0.97378C0.554166 18.0619 0.256755 17.6516 0.386598 17.2519L5.85196 0.427155Z" fill="#EBD4FF"/>
<path d="M16.5636 13.9765C16.1254 13.9765 15.7414 13.9442 15.4118 13.8798C15.0822 13.8153 14.7767 13.7167 14.4952 13.5839V12.575C14.7485 12.7039 15.046 12.8227 15.3878 12.9314C15.7295 13.0362 16.1254 13.0885 16.5757 13.0885C16.853 13.0885 17.1183 13.0562 17.3716 12.9919C17.6249 12.9275 17.85 12.8268 18.047 12.6898C18.248 12.5529 18.4048 12.3777 18.5173 12.1643C18.6339 11.9509 18.6922 11.6972 18.6922 11.4032C18.6922 11.1656 18.6399 10.9562 18.5355 10.775C18.4349 10.5897 18.2741 10.4125 18.0531 10.2434C17.8319 10.0702 17.5425 9.88497 17.1846 9.68765C16.8791 9.50644 16.6038 9.31716 16.3586 9.11984C16.1174 8.91848 15.9264 8.68491 15.7857 8.41913C15.645 8.14931 15.5746 7.82312 15.5746 7.44055C15.5746 7.02979 15.6511 6.66735 15.8038 6.35325C15.9566 6.03511 16.1655 5.76932 16.4309 5.55589C16.7003 5.33842 17.0078 5.17533 17.3536 5.0666C17.7033 4.95384 18.0731 4.89746 18.4631 4.89746C18.9253 4.89746 19.3274 4.94377 19.6692 5.03639C20.0109 5.12901 20.3405 5.25386 20.658 5.41091L20.2661 6.28075C20.041 6.15995 19.7696 6.05122 19.452 5.95456C19.1385 5.85389 18.8088 5.80355 18.4631 5.80355C18.2098 5.80355 17.9727 5.83778 17.7515 5.90624C17.5344 5.97067 17.3435 6.06933 17.1787 6.20223C17.0138 6.33512 16.8852 6.50023 16.7928 6.69756C16.7003 6.89086 16.6541 7.11637 16.6541 7.3741C16.6541 7.63586 16.7023 7.85332 16.7987 8.02649C16.8992 8.19965 17.044 8.3567 17.2329 8.49766C17.426 8.6386 17.6631 8.79163 17.9445 8.95674C18.3023 9.16615 18.6178 9.37555 18.8912 9.58496C19.1645 9.79034 19.3777 10.0299 19.5305 10.3038C19.6832 10.5736 19.7596 10.9139 19.7596 11.3246C19.7596 11.7676 19.6811 12.1562 19.5244 12.4905C19.3717 12.8207 19.1526 13.0966 18.867 13.318C18.5816 13.5355 18.244 13.7006 17.854 13.8134C17.4641 13.9221 17.034 13.9765 16.5636 13.9765ZM35.3499 13.8557L37.0262 5.9304H34.566L34.7589 5.02431H40.7047L40.5238 5.9304H38.0635L36.3811 13.8557H35.3499ZM51.8869 13.8557L56.7171 5.02431H57.7844L58.9 13.8557H57.8929L57.5432 11.0407H54.498L53.0026 13.8557H51.8869ZM54.9864 10.1286H57.4407L57.2055 8.06878C57.1774 7.77077 57.1472 7.44458 57.115 7.0902C57.0829 6.73179 57.0628 6.41164 57.0547 6.12974H57.0186C56.89 6.4358 56.7432 6.75797 56.5784 7.09623C56.4176 7.43049 56.2467 7.76875 56.0658 8.11106L54.9864 10.1286ZM72.9889 13.8557L74.8522 5.02431H75.8652L74.9426 9.37354L75.7023 8.57618L79.242 5.02431H80.4782L76.6009 8.89029L78.7295 13.8557H77.6139L75.829 9.50644L74.7436 10.3219L74.0019 13.8557H72.9889ZM92.8786 13.8557L94.7419 5.02431H99.2103L99.0173 5.9304H95.5681L94.959 8.7876H98.1912L98.0163 9.68161H94.7781L94.0786 12.9496H97.5339L97.3409 13.8557H92.8786Z" fill="#220050"/>
</g>
<defs>
<clipPath id="clip0_24879_270495">
<rect width="113" height="19" fill="white"/>
</clipPath>
</defs>
</svg>
