<svg width="138" height="48" viewBox="0 0 138 48" fill="none" xmlns="http://www.w3.org/2000/svg">
<g clip-path="url(#clip0_22609_197909)">
<path fill-rule="evenodd" clip-rule="evenodd" d="M21.5426 0.397652L41.2619 11.8229C41.5298 11.9782 41.6949 12.2651 41.6949 12.5756V35.4259C41.6949 35.7364 41.5298 36.0233 41.2619 36.1786L21.5426 47.6039C21.2748 47.7591 20.9448 47.7591 20.6769 47.6039L0.957622 36.1786C0.689706 36.0233 0.524658 35.7364 0.524658 35.4259V12.5756C0.524658 12.2651 0.689706 11.9782 0.957622 11.8229L20.6769 0.397652C20.9448 0.242449 21.2748 0.242449 21.5426 0.397652Z" fill="#AE52FF"/>
<path fill-rule="evenodd" clip-rule="evenodd" d="M21.5051 45.4256L39.3766 35.0709C39.6445 34.9157 39.8096 34.6288 39.8096 34.3183V13.6091C39.8096 13.2986 39.6445 13.0117 39.3766 12.8565L21.5051 2.5018C21.2373 2.3466 20.9073 2.3466 20.6394 2.5018L2.76793 12.8565C2.50001 13.0117 2.33496 13.2986 2.33496 13.6091V34.3183C2.33496 34.6288 2.50001 34.9157 2.76793 35.0709L20.6394 45.4256C20.9073 45.5808 21.2373 45.5808 21.5051 45.4256Z" fill="url(#paint0_linear_22609_197909)"/>
<path d="M32.9758 12.4683H9.1687V13.8206H32.9758V12.4683Z" fill="#9013FE"/>
<path d="M32.9758 16.7505H9.1687V18.1028H32.9758V16.7505Z" fill="#9013FE"/>
<path d="M32.9758 21.0332H9.1687V22.3856H32.9758V21.0332Z" fill="#9013FE"/>
<path d="M32.9758 25.3154H9.1687V26.6678H32.9758V25.3154Z" fill="#9013FE"/>
<path d="M32.9758 29.5981H9.1687V30.9505H32.9758V29.5981Z" fill="#9013FE"/>
<path fill-rule="evenodd" clip-rule="evenodd" d="M21.1231 45.7699L2.34378 35.144C2.24766 35.0896 2.21366 34.9673 2.26785 34.8708C2.28571 34.839 2.31188 34.8127 2.34353 34.7947L21.2221 24.0757L39.8139 34.7768C39.9096 34.8319 39.9427 34.9545 39.8878 35.0506C39.8702 35.0815 39.8446 35.1071 39.8139 35.1248L21.3206 45.7692C21.2595 45.8044 21.1845 45.8047 21.1231 45.7699Z" fill="#4D00B4"/>
<path d="M11.1448 33.6753L26.3424 42.9914C26.5188 43.0996 26.7492 43.0437 26.8569 42.8667C26.9647 42.6896 26.9091 42.4584 26.7326 42.3503L11.5351 33.0341C11.3587 32.926 11.1283 32.9818 11.0205 33.1589C10.9127 33.3359 10.9684 33.5671 11.1448 33.6753Z" fill="#9013FE"/>
<path d="M20.2784 28.4165L35.476 37.7327C35.6524 37.8409 35.8828 37.785 35.9905 37.608C36.0983 37.4309 36.0427 37.1997 35.8662 37.0916L20.6686 27.7753C20.4922 27.6672 20.2618 27.7231 20.1541 27.9001C20.0463 28.0772 20.1019 28.3084 20.2784 28.4165Z" fill="#9013FE"/>
<path fill-rule="evenodd" clip-rule="evenodd" d="M21.2054 32.6761L28.126 28.6675C28.2085 28.6198 28.2593 28.5315 28.2593 28.4359V13.1791C28.2593 13.0835 28.2085 12.9953 28.126 12.9475L21.2054 8.9389C21.123 8.89117 21.0215 8.89117 20.9391 8.9389L14.0185 12.9475C13.9361 12.9953 13.8853 13.0835 13.8853 13.1791V28.4359C13.8853 28.5315 13.9361 28.6198 14.0185 28.6675L20.9391 32.6761C21.0215 32.7238 21.123 32.7238 21.2054 32.6761Z" fill="white"/>
<path d="M19.8944 18.374L17.5829 16.0492C17.444 15.9096 17.444 15.6831 17.5829 15.5434L18.0858 15.0376C18.2247 14.8979 18.4498 14.8979 18.5887 15.0376L20.1458 16.6037L23.481 13.2493C23.6198 13.1096 23.845 13.1096 23.9839 13.2493L24.4868 13.7551C24.6256 13.8948 24.6256 14.1212 24.4868 14.2609L20.3973 18.374C20.2584 18.5137 20.0332 18.5137 19.8944 18.374Z" fill="#4D00B4"/>
<path fill-rule="evenodd" clip-rule="evenodd" d="M12.2591 37.2596L17.5361 34.2021C17.6185 34.1544 17.6693 34.0661 17.6693 33.9705V27.8557C17.6693 27.7601 17.6185 27.6718 17.5361 27.6241L12.2591 24.5666C12.1767 24.5189 12.0751 24.5189 11.9927 24.5666L6.71574 27.6241C6.6333 27.6718 6.58252 27.7601 6.58252 27.8557V33.9705C6.58252 34.0661 6.6333 34.1544 6.71574 34.2021L11.9927 37.2596C12.0751 37.3073 12.1767 37.3073 12.2591 37.2596Z" fill="#EBD4FF"/>
<path d="M12.1261 33.5043C13.5525 33.5043 14.7089 32.3438 14.7089 30.9123C14.7089 29.4808 13.5525 28.3203 12.1261 28.3203C10.6996 28.3203 9.54321 29.4808 9.54321 30.9123C9.54321 32.3438 10.6996 33.5043 12.1261 33.5043ZM12.1261 32.6027C11.1958 32.6027 10.4416 31.8459 10.4416 30.9123C10.4416 29.9787 11.1958 29.2219 12.1261 29.2219C13.0564 29.2219 13.8105 29.9787 13.8105 30.9123C13.8105 31.8459 13.0564 32.6027 12.1261 32.6027Z" fill="#9013FE"/>
<path d="M26.9866 32.4533C27.2347 32.4533 27.4358 32.2515 27.4358 32.0025C27.4358 31.7536 27.2347 31.5518 26.9866 31.5518C26.7385 31.5518 26.5374 31.7536 26.5374 32.0025C26.5374 32.2515 26.7385 32.4533 26.9866 32.4533Z" fill="white"/>
<path d="M28.1096 33.1296C28.3577 33.1296 28.5588 32.9278 28.5588 32.6788C28.5588 32.4298 28.3577 32.228 28.1096 32.228C27.8615 32.228 27.6604 32.4298 27.6604 32.6788C27.6604 32.9278 27.8615 33.1296 28.1096 33.1296Z" fill="white"/>
<path d="M29.2326 33.8049C29.4807 33.8049 29.6818 33.6031 29.6818 33.3541C29.6818 33.1051 29.4807 32.9033 29.2326 32.9033C28.9846 32.9033 28.7834 33.1051 28.7834 33.3541C28.7834 33.6031 28.9846 33.8049 29.2326 33.8049Z" fill="white"/>
<path d="M33.5747 36.5105C33.8228 36.5105 34.0239 36.3086 34.0239 36.0597C34.0239 35.8107 33.8228 35.6089 33.5747 35.6089C33.3266 35.6089 33.1255 35.8107 33.1255 36.0597C33.1255 36.3086 33.3266 36.5105 33.5747 36.5105Z" fill="white"/>
<path d="M16.6552 36.9606C16.9033 36.9606 17.1044 36.7588 17.1044 36.5099C17.1044 36.2609 16.9033 36.0591 16.6552 36.0591C16.4072 36.0591 16.2061 36.2609 16.2061 36.5099C16.2061 36.7588 16.4072 36.9606 16.6552 36.9606Z" fill="white"/>
<path d="M20.4734 39.3645C20.7214 39.3645 20.9226 39.1626 20.9226 38.9137C20.9226 38.6647 20.7214 38.4629 20.4734 38.4629C20.2253 38.4629 20.0242 38.6647 20.0242 38.9137C20.0242 39.1626 20.2253 39.3645 20.4734 39.3645Z" fill="white"/>
<path d="M21.5964 40.0412C21.8445 40.0412 22.0456 39.8394 22.0456 39.5904C22.0456 39.3415 21.8445 39.1396 21.5964 39.1396C21.3483 39.1396 21.1472 39.3415 21.1472 39.5904C21.1472 39.8394 21.3483 40.0412 21.5964 40.0412Z" fill="white"/>
<path d="M65.9631 16.9289V20.0932C64.4193 18.8014 62.822 18.1556 61.1712 18.1556C59.3747 18.1556 57.8578 18.7931 56.6204 20.068L56.5741 20.1161C55.3207 21.4154 54.694 23.0052 54.694 24.8855C54.694 26.7428 55.3207 28.3096 56.5741 29.586C57.8275 30.8625 59.3637 31.5007 61.1826 31.5007C62.1227 31.5007 62.9213 31.3478 63.5786 31.0421C63.9454 30.8892 64.3257 30.6828 64.7193 30.423C65.1129 30.1631 65.5275 29.8497 65.9631 29.4829V32.7045C64.4346 33.5682 62.8296 34 61.1482 34C58.6185 34 56.4595 33.1172 54.6711 31.3516C52.8904 29.5707 52 27.423 52 24.9084C52 22.6536 52.7451 20.6435 54.2355 18.8779C56.0697 16.7148 58.4427 15.6333 61.3546 15.6333C62.9443 15.6333 64.4804 16.0652 65.9631 16.9289ZM71.7888 15.95V26.4411C71.7888 27.9377 72.0355 29.0319 72.5287 29.7238C73.2649 30.724 74.3007 31.2241 75.6364 31.2241C76.9796 31.2241 78.0193 30.724 78.7554 29.7238C79.2487 29.0545 79.4953 27.9602 79.4953 26.4411V15.95H82.1476V27.1631C82.1476 28.9981 81.5709 30.5097 80.4173 31.6979C79.1196 33.0215 77.526 33.6833 75.6364 33.6833C73.7467 33.6833 72.1569 33.0215 70.8668 31.6979C69.7133 30.5097 69.1365 28.9981 69.1365 27.1631V15.95H71.7888ZM92.5594 25.9443L98.0148 33.3667H94.7621L89.729 26.2376H89.2496V33.3667H86.5904V15.95H89.7061C92.0344 15.95 93.7159 16.3824 94.7507 17.2472C95.892 18.2098 96.4626 19.4807 96.4626 21.0599C96.4626 22.2933 96.105 23.3536 95.3898 24.241C94.6746 25.1283 93.7311 25.6961 92.5594 25.9443ZM89.1292 24.1833H89.9989C92.5925 24.1833 93.8893 23.2023 93.8893 21.2403C93.8893 19.4023 92.6278 18.4833 90.1047 18.4833H89.1292V24.1833ZM111.025 29.4138H103.479L101.515 33.6833H98.6494L107.372 15L115.786 33.6833H112.875L111.025 29.4138ZM109.756 27.0333L107.122 21.0167L104.362 27.0333H109.756ZM121.886 18.4204V33.3667H119.217V18.4204H115.151V15.95H125.941V18.4204H121.886ZM138 18.4204H130.853V22.6053H137.792V25.0757H130.853V30.8963H138V33.3667H128.162V15.95H138V18.4204Z" fill="#AE52FF"/>
</g>
<defs>
<linearGradient id="paint0_linear_22609_197909" x1="21.0723" y1="45.542" x2="21.0723" y2="2.38541" gradientUnits="userSpaceOnUse">
<stop stop-color="#9013FE"/>
<stop offset="1" stop-color="#4D00B4"/>
</linearGradient>
<clipPath id="clip0_22609_197909">
<rect width="138" height="48" fill="white"/>
</clipPath>
</defs>
</svg>
