<svg width="108" height="48" viewBox="0 0 108 48" fill="none" xmlns="http://www.w3.org/2000/svg">
<g clip-path="url(#clip0_24879_270500)">
<path fill-rule="evenodd" clip-rule="evenodd" d="M21.3375 0.555075L40.918 11.9039C41.1841 12.0581 41.348 12.3431 41.348 12.6515V35.349C41.348 35.6574 41.1841 35.9424 40.918 36.0966L21.3375 47.4454C21.0715 47.5996 20.7438 47.5996 20.4778 47.4454L0.89732 36.0966C0.631288 35.9424 0.467407 35.6574 0.467407 35.349V12.6515C0.467407 12.3431 0.631288 12.0581 0.89732 11.9039L20.4778 0.555075C20.7438 0.400913 21.0715 0.400913 21.3375 0.555075Z" fill="#AE52FF"/>
<path fill-rule="evenodd" clip-rule="evenodd" d="M21.3003 45.281L39.0461 34.9956C39.3121 34.8414 39.476 34.5564 39.476 34.248V13.6774C39.476 13.369 39.3121 13.084 39.0461 12.9298L21.3003 2.64443C21.0344 2.49027 20.7067 2.49027 20.4407 2.64443L2.69494 12.9298C2.42891 13.084 2.26501 13.369 2.26501 13.6774V34.248C2.26501 34.5564 2.42891 34.8414 2.69494 34.9956L20.4407 45.281C20.7067 45.4352 21.0344 45.4352 21.3003 45.281Z" fill="url(#paint0_linear_24879_270500)"/>
<path d="M32.6902 12.5444H9.05066V13.8877H32.6902V12.5444Z" fill="#9013FE"/>
<path d="M32.6902 16.7983H9.05066V18.1416H32.6902V16.7983Z" fill="#9013FE"/>
<path d="M32.6902 21.0522H9.05066V22.3955H32.6902V21.0522Z" fill="#9013FE"/>
<path d="M32.6902 25.3062H9.05066V26.6495H32.6902V25.3062Z" fill="#9013FE"/>
<path d="M32.6902 29.5596H9.05066V30.9029H32.6902V29.5596Z" fill="#9013FE"/>
<path fill-rule="evenodd" clip-rule="evenodd" d="M20.9209 45.6238L2.27375 35.0689C2.1783 35.0149 2.14454 34.8934 2.1983 34.7976C2.21608 34.766 2.24203 34.7399 2.2735 34.722L21.0192 24.0747L39.4802 34.7042C39.5752 34.759 39.6081 34.8807 39.5536 34.9761C39.5361 35.0069 39.5107 35.0323 39.4802 35.0499L21.1171 45.6231C21.0564 45.658 20.9819 45.6583 20.9209 45.6238Z" fill="#4D00B4"/>
<path d="M11.0128 33.6096L26.1035 42.8634C26.2787 42.9709 26.5074 42.9154 26.6145 42.7395C26.7214 42.5637 26.6662 42.334 26.491 42.2266L11.4003 32.9727C11.2252 32.8653 10.9964 32.9208 10.8894 33.0966C10.7824 33.2725 10.8377 33.5022 11.0128 33.6096Z" fill="#9013FE"/>
<path d="M20.082 28.3855L35.1727 37.6393C35.3479 37.7468 35.5766 37.6913 35.6837 37.5154C35.7906 37.3395 35.7354 37.1099 35.5602 37.0025L20.4695 27.7486C20.2944 27.6412 20.0656 27.6966 19.9586 27.8725C19.8516 28.0484 19.9069 28.2781 20.082 28.3855Z" fill="#9013FE"/>
<path fill-rule="evenodd" clip-rule="evenodd" d="M21.0027 32.6173L27.8746 28.6356C27.9565 28.5881 28.0069 28.5004 28.0069 28.4055V13.2508C28.0069 13.1559 27.9565 13.0682 27.8746 13.0207L21.0027 9.03896C20.9208 8.99157 20.8201 8.99157 20.7382 9.03896L13.8663 13.0207C13.7844 13.0682 13.734 13.1559 13.734 13.2508V28.4055C13.734 28.5004 13.7844 28.5881 13.8663 28.6356L20.7382 32.6173C20.8201 32.6647 20.9208 32.6647 21.0027 32.6173Z" fill="white"/>
<path d="M19.7008 18.4109L17.4057 16.1016C17.2678 15.9628 17.2678 15.7379 17.4057 15.5991L17.905 15.0967C18.0429 14.9579 18.2665 14.9579 18.4044 15.0967L19.9505 16.6523L23.2623 13.3204C23.4001 13.1816 23.6237 13.1816 23.7616 13.3204L24.261 13.8228C24.3989 13.9615 24.3989 14.1865 24.261 14.3252L20.2003 18.4109C20.0623 18.5496 19.8388 18.5496 19.7008 18.4109Z" fill="#4D00B4"/>
<path fill-rule="evenodd" clip-rule="evenodd" d="M12.1193 37.1699L17.3591 34.133C17.441 34.0855 17.4914 33.9978 17.4914 33.9029V27.829C17.4914 27.7341 17.441 27.6464 17.3591 27.5989L12.1193 24.562C12.0375 24.5145 11.9367 24.5145 11.8548 24.562L6.61497 27.5989C6.53309 27.6464 6.48267 27.7341 6.48267 27.829V33.9029C6.48267 33.9978 6.53309 34.0855 6.61497 34.133L11.8548 37.1699C11.9367 37.2174 12.0375 37.2174 12.1193 37.1699Z" fill="#EBD4FF"/>
<path d="M11.987 33.4403C13.4034 33.4403 14.5517 32.2876 14.5517 30.8657C14.5517 29.4437 13.4034 28.291 11.987 28.291C10.5706 28.291 9.42236 29.4437 9.42236 30.8657C9.42236 32.2876 10.5706 33.4403 11.987 33.4403ZM11.987 32.5448C11.0633 32.5448 10.3144 31.793 10.3144 30.8657C10.3144 29.9383 11.0633 29.1865 11.987 29.1865C12.9108 29.1865 13.6596 29.9383 13.6596 30.8657C13.6596 31.793 12.9108 32.5448 11.987 32.5448Z" fill="#9013FE"/>
<path d="M26.7433 32.3955C26.9896 32.3955 27.1893 32.195 27.1893 31.9478C27.1893 31.7005 26.9896 31.5 26.7433 31.5C26.4969 31.5 26.2972 31.7005 26.2972 31.9478C26.2972 32.195 26.4969 32.3955 26.7433 32.3955Z" fill="white"/>
<path d="M27.8583 33.0674C28.1046 33.0674 28.3043 32.8669 28.3043 32.6196C28.3043 32.3724 28.1046 32.1719 27.8583 32.1719C27.6119 32.1719 27.4122 32.3724 27.4122 32.6196C27.4122 32.8669 27.6119 33.0674 27.8583 33.0674Z" fill="white"/>
<path d="M28.9734 33.7388C29.2197 33.7388 29.4193 33.5383 29.4193 33.291C29.4193 33.0438 29.2197 32.8433 28.9734 32.8433C28.727 32.8433 28.5273 33.0438 28.5273 33.291C28.5273 33.5383 28.727 33.7388 28.9734 33.7388Z" fill="white"/>
<path d="M33.285 36.4253C33.5314 36.4253 33.731 36.2248 33.731 35.9775C33.731 35.7303 33.5314 35.5298 33.285 35.5298C33.0387 35.5298 32.839 35.7303 32.839 35.9775C32.839 36.2248 33.0387 36.4253 33.285 36.4253Z" fill="white"/>
<path d="M16.4846 36.8731C16.7309 36.8731 16.9306 36.6726 16.9306 36.4253C16.9306 36.178 16.7309 35.9775 16.4846 35.9775C16.2383 35.9775 16.0386 36.178 16.0386 36.4253C16.0386 36.6726 16.2383 36.8731 16.4846 36.8731Z" fill="white"/>
<path d="M20.2757 39.2613C20.5221 39.2613 20.7218 39.0608 20.7218 38.8135C20.7218 38.5662 20.5221 38.3657 20.2757 38.3657C20.0294 38.3657 19.8297 38.5662 19.8297 38.8135C19.8297 39.0608 20.0294 39.2613 20.2757 39.2613Z" fill="white"/>
<path d="M21.3909 39.9331C21.6372 39.9331 21.8369 39.7327 21.8369 39.4854C21.8369 39.2381 21.6372 39.0376 21.3909 39.0376C21.1445 39.0376 20.9448 39.2381 20.9448 39.4854C20.9448 39.7327 21.1445 39.9331 21.3909 39.9331Z" fill="white"/>
<path d="M59.9502 24.5611V26.6501C58.9338 25.7973 57.882 25.371 56.7956 25.371C55.6127 25.371 54.6141 25.7918 53.7995 26.6335L53.769 26.6653C52.9439 27.5232 52.5313 28.5727 52.5313 29.8141C52.5313 31.0403 52.9439 32.0748 53.769 32.9175C54.5941 33.7602 55.6054 34.1815 56.803 34.1815C57.4218 34.1815 57.9477 34.0806 58.38 33.8788C58.6216 33.7778 58.8718 33.6416 59.1314 33.4701C59.3903 33.2985 59.6634 33.0916 59.9502 32.8493V34.9763C58.9437 35.5465 57.887 35.8317 56.7801 35.8317C55.1149 35.8317 53.6936 35.2488 52.5162 34.0831C51.344 32.9074 50.7578 31.4894 50.7578 29.8292C50.7578 28.3406 51.2484 27.0134 52.2294 25.8478C53.437 24.4198 54.9992 23.7057 56.9158 23.7057C57.9625 23.7057 58.974 23.9908 59.9502 24.5611ZM63.7849 23.9148V30.8412C63.7849 31.8292 63.9472 32.5516 64.2724 33.0084C64.7567 33.6688 65.4387 33.999 66.3176 33.999C67.2021 33.999 67.8866 33.6688 68.3709 33.0084C68.6961 32.5665 68.8584 31.8441 68.8584 30.8412V23.9148H70.6045V31.3178C70.6045 32.5293 70.2248 33.5273 69.4654 34.3118C68.6113 35.1856 67.562 35.6226 66.3176 35.6226C65.0739 35.6226 64.0271 35.1856 63.1779 34.3118C62.4185 33.5273 62.0388 32.5293 62.0388 31.3178V23.9148H63.7849ZM77.4588 30.5131L81.0501 35.4135H78.9088L75.595 30.7068H75.2797V35.4135H73.5293V23.9148H75.5801C77.1131 23.9148 78.22 24.2003 78.9014 24.7713C79.6527 25.4067 80.028 26.2458 80.028 27.2885C80.028 28.1027 79.7927 28.8027 79.3219 29.3886C78.8512 29.9744 78.2299 30.3493 77.4588 30.5131ZM75.2004 29.3505H75.7728C77.4805 29.3505 78.334 28.7028 78.334 27.4075C78.334 26.194 77.5034 25.5873 75.8428 25.5873H75.2004V29.3505ZM89.6151 32.8038H84.6469L83.3542 35.6226H81.4675L87.21 23.2876L92.7487 35.6226H90.8322L89.6151 32.8038ZM88.7795 31.2322L87.0452 27.2598L85.2279 31.2322H88.7795ZM96.7648 25.5458V35.4135H95.0076V25.5458H92.3312V23.9148H99.4338V25.5458H96.7648ZM107.373 25.5458H102.668V28.3087H107.236V29.9397H102.668V33.7825H107.373V35.4135H100.896V23.9148H107.373V25.5458Z" fill="url(#paint1_linear_24879_270500)"/>
<path d="M53.6326 11.9633C53.6741 11.8352 53.793 11.7485 53.9271 11.7485H106.944C107.155 11.7485 107.304 11.9558 107.238 12.157L104.456 20.6148C104.414 20.7422 104.295 20.8282 104.162 20.8282H51.1859C50.9754 20.8282 50.8263 20.622 50.8914 20.4211L53.6326 11.9633Z" fill="#EBD4FF"/>
<path d="M59.0049 18.7745C58.785 18.7745 58.5924 18.7583 58.427 18.7259C58.2622 18.6935 58.1086 18.6439 57.9674 18.5771V18.0699C58.0944 18.1347 58.2437 18.1945 58.4152 18.2491C58.5868 18.3018 58.785 18.3281 59.0111 18.3281C59.1498 18.3281 59.283 18.3119 59.41 18.2795C59.537 18.2471 59.6503 18.1965 59.7488 18.1277C59.8498 18.0588 59.9284 17.9708 59.9848 17.8635C60.0436 17.7562 60.0727 17.6286 60.0727 17.4809C60.0727 17.3614 60.0461 17.2561 59.9941 17.1651C59.9433 17.0719 59.8628 16.9829 59.7519 16.8979C59.641 16.8108 59.4961 16.7177 59.3165 16.6185C59.1635 16.5274 59.0253 16.4322 58.9021 16.333C58.7813 16.2318 58.6853 16.1144 58.6147 15.9808C58.5441 15.8452 58.5088 15.6812 58.5088 15.4889C58.5088 15.2824 58.5472 15.1002 58.624 14.9422C58.7008 14.7823 58.8055 14.6487 58.9386 14.5414C59.0737 14.4321 59.2279 14.3501 59.4013 14.2955C59.5766 14.2388 59.7618 14.2104 59.9575 14.2104C60.1898 14.2104 60.3911 14.2337 60.5627 14.2803C60.7336 14.3269 60.899 14.3896 61.0588 14.4685L60.8619 14.9059C60.7491 14.8451 60.6129 14.7904 60.4537 14.7419C60.2964 14.6912 60.131 14.6659 59.9575 14.6659C59.8306 14.6659 59.7116 14.6832 59.6008 14.7175C59.4917 14.7499 59.3964 14.7996 59.3134 14.8664C59.231 14.9332 59.1666 15.0162 59.1201 15.1154C59.0737 15.2125 59.0501 15.3259 59.0501 15.4554C59.0501 15.587 59.0743 15.6964 59.1232 15.7834C59.1734 15.8705 59.2459 15.9494 59.3406 16.0202C59.4372 16.0911 59.5562 16.1681 59.6974 16.251C59.877 16.3563 60.0356 16.4616 60.1725 16.5669C60.3094 16.6701 60.4165 16.7906 60.4927 16.9282C60.5695 17.0638 60.6079 17.2349 60.6079 17.4414C60.6079 17.6641 60.5689 17.8594 60.4902 18.0275C60.4134 18.1935 60.3032 18.3321 60.1601 18.4435C60.017 18.5528 59.8479 18.6358 59.6522 18.6925C59.4564 18.7471 59.2409 18.7745 59.0049 18.7745ZM68.4272 18.7137L69.2677 14.7297H68.0339L68.1311 14.2742H71.1129L71.0219 14.7297H69.788L68.9444 18.7137H68.4272ZM76.7216 18.7137L79.1441 14.2742H79.6792L80.2385 18.7137H79.7337L79.5584 17.2987H78.031L77.2809 18.7137H76.7216ZM78.2757 16.8401H79.507L79.3887 15.8047C79.3751 15.6549 79.3596 15.4909 79.3435 15.3127C79.3274 15.1325 79.3175 14.9716 79.3132 14.8299H79.2952C79.2308 14.9838 79.1571 15.1457 79.0741 15.3157C78.9936 15.4838 78.9081 15.6539 78.817 15.8259L78.2757 16.8401ZM87.3053 18.7137L88.2393 14.2742H88.7479L88.2852 16.4606L88.6661 16.0597L90.4413 14.2742H91.0613L89.1164 16.2176L90.1842 18.7137H89.6249L88.7293 16.5274L88.1848 16.9373L87.8132 18.7137H87.3053ZM97.2807 18.7137L98.2154 14.2742H100.456L100.36 14.7297H98.6298L98.3244 16.166H99.9454L99.8574 16.6155H98.2333L97.8828 18.2583H99.6159L99.5186 18.7137H97.2807Z" fill="#220050"/>
</g>
<defs>
<linearGradient id="paint0_linear_24879_270500" x1="1862.81" y1="45.3966" x2="1862.81" y2="-4241.39" gradientUnits="userSpaceOnUse">
<stop stop-color="#9013FE"/>
<stop offset="1" stop-color="#4D00B4"/>
</linearGradient>
<linearGradient id="paint1_linear_24879_270500" x1="50.7578" y1="650.487" x2="5712.25" y2="650.487" gradientUnits="userSpaceOnUse">
<stop stop-color="#AE52FF"/>
<stop offset="1" stop-color="#760CE1"/>
</linearGradient>
<clipPath id="clip0_24879_270500">
<rect width="108" height="48" fill="white"/>
</clipPath>
</defs>
</svg>
