<svg width="150" height="173" viewBox="0 0 150 173" fill="none" xmlns="http://www.w3.org/2000/svg">
<path fill-rule="evenodd" clip-rule="evenodd" d="M76.5771 0.422253L148.423 41.8681C149.399 42.4312 150 43.4719 150 44.5982V127.489C150 128.615 149.399 129.656 148.423 130.219L76.5771 171.665C75.6012 172.228 74.3988 172.228 73.4229 171.665L1.57747 130.219C0.601336 129.656 0 128.615 0 127.489V44.5982C0 43.4719 0.601336 42.4312 1.57747 41.8681L73.4229 0.422253C74.3988 -0.140751 75.6012 -0.140751 76.5771 0.422253Z" fill="#AE52FF"/>
<path fill-rule="evenodd" clip-rule="evenodd" d="M76.441 163.761L141.554 126.199C142.53 125.636 143.132 124.595 143.132 123.469V48.3455C143.132 47.2192 142.53 46.1784 141.554 45.6153L76.441 8.05318C75.4651 7.49017 74.2627 7.49017 73.2868 8.05318L8.17365 45.6153C7.19752 46.1784 6.59618 47.2192 6.59618 48.3455V123.469C6.59618 124.595 7.19752 125.636 8.17365 126.199L73.2868 163.761C74.2627 164.324 75.4651 164.324 76.441 163.761Z" fill="url(#paint0_linear)"/>
<path d="M118.232 44.2085H31.4933V49.1142H118.232V44.2085Z" fill="#9013FE"/>
<path d="M118.232 59.7428H31.4933V64.6485H118.232V59.7428Z" fill="#9013FE"/>
<path d="M118.232 75.2789H31.4933V80.1846H118.232V75.2789Z" fill="#9013FE"/>
<path d="M118.232 90.8124H31.4933V95.7181H118.232V90.8124Z" fill="#9013FE"/>
<path d="M118.232 106.348H31.4933V111.253H118.232V106.348Z" fill="#9013FE"/>
<path fill-rule="evenodd" clip-rule="evenodd" d="M75.049 165.013L6.62821 126.467C6.27797 126.27 6.15411 125.826 6.35156 125.476C6.41662 125.361 6.51195 125.265 6.62727 125.2L75.4096 86.3161L143.147 125.135C143.496 125.335 143.617 125.78 143.417 126.128C143.352 126.24 143.259 126.333 143.147 126.397L75.7687 165.01C75.546 165.138 75.2726 165.139 75.049 165.013Z" fill="#4D00B4"/>
<path d="M38.6934 121.138L94.0645 154.933C94.7073 155.325 95.5466 155.122 95.9393 154.48C96.3319 153.838 96.1291 152.999 95.4863 152.607L40.1153 118.812C39.4725 118.42 38.6331 118.622 38.2405 119.265C37.8478 119.907 38.0506 120.745 38.6934 121.138Z" fill="#9013FE"/>
<path d="M71.969 102.06L127.34 135.855C127.983 136.247 128.822 136.044 129.215 135.402C129.608 134.76 129.405 133.921 128.762 133.529L73.3909 99.7339C72.7481 99.3416 71.9088 99.5442 71.5161 100.186C71.1235 100.829 71.3263 101.667 71.969 102.06Z" fill="#9013FE"/>
<path fill-rule="evenodd" clip-rule="evenodd" d="M75.3489 117.515L100.564 102.973C100.864 102.8 101.049 102.48 101.049 102.133V46.7882C101.049 46.4416 100.864 46.1214 100.564 45.9481L75.3489 31.4067C75.0487 31.2336 74.6788 31.2336 74.3786 31.4067L49.1639 45.9481C48.8635 46.1214 48.6784 46.4416 48.6784 46.7882V102.133C48.6784 102.48 48.8635 102.8 49.1639 102.973L74.3786 117.515C74.6788 117.688 75.0487 117.688 75.3489 117.515Z" fill="white"/>
<path d="M70.5719 65.6321L62.1503 57.1988C61.6443 56.6921 61.6443 55.8706 62.1503 55.3639L63.9825 53.529C64.4885 53.0223 65.3089 53.0223 65.8148 53.529L71.488 59.2101L83.6393 47.0419C84.1453 46.5352 84.9657 46.5352 85.4716 47.0419L87.3039 48.8767C87.8099 49.3834 87.8099 50.2049 87.3039 50.7116L72.4042 65.6322C71.8982 66.1388 71.0778 66.1388 70.5719 65.6321Z" fill="#4D00B4"/>
<path fill-rule="evenodd" clip-rule="evenodd" d="M42.753 134.139L61.9792 123.048C62.2796 122.875 62.4646 122.555 62.4646 122.208V100.026C62.4646 99.6795 62.2796 99.3593 61.9792 99.186L42.753 88.0949C42.4527 87.9217 42.0828 87.9217 41.7825 88.0949L22.5563 99.186C22.2559 99.3593 22.0709 99.6795 22.0709 100.026V122.208C22.0709 122.555 22.2559 122.875 22.5563 123.048L41.7825 134.139C42.0828 134.312 42.4527 134.312 42.753 134.139Z" fill="#EBD4FF"/>
<path d="M42.2685 120.52C47.4657 120.52 51.6788 116.31 51.6788 111.117C51.6788 105.924 47.4657 101.715 42.2685 101.715C37.0713 101.715 32.8581 105.924 32.8581 111.117C32.8581 116.31 37.0713 120.52 42.2685 120.52ZM42.2685 117.249C38.879 117.249 36.1313 114.504 36.1313 111.117C36.1313 107.73 38.879 104.985 42.2685 104.985C45.6579 104.985 48.4057 107.73 48.4057 111.117C48.4057 114.504 45.6579 117.249 42.2685 117.249Z" fill="#9013FE"/>
<path d="M96.4111 116.705C97.315 116.705 98.0477 115.973 98.0477 115.069C98.0477 114.166 97.315 113.434 96.4111 113.434C95.5072 113.434 94.7745 114.166 94.7745 115.069C94.7745 115.973 95.5072 116.705 96.4111 116.705Z" fill="white"/>
<path d="M100.502 119.157C101.406 119.157 102.139 118.425 102.139 117.522C102.139 116.619 101.406 115.887 100.502 115.887C99.5983 115.887 98.8655 116.619 98.8655 117.522C98.8655 118.425 99.5983 119.157 100.502 119.157Z" fill="white"/>
<path d="M104.595 121.611C105.499 121.611 106.232 120.878 106.232 119.975C106.232 119.072 105.499 118.34 104.595 118.34C103.691 118.34 102.958 119.072 102.958 119.975C102.958 120.878 103.691 121.611 104.595 121.611Z" fill="white"/>
<path d="M120.415 131.421C121.319 131.421 122.052 130.689 122.052 129.786C122.052 128.883 121.319 128.151 120.415 128.151C119.511 128.151 118.779 128.883 118.779 129.786C118.779 130.689 119.511 131.421 120.415 131.421Z" fill="white"/>
<path d="M58.7708 133.057C59.6746 133.057 60.4073 132.325 60.4073 131.422C60.4073 130.519 59.6746 129.787 58.7708 129.787C57.8669 129.787 57.1342 130.519 57.1342 131.422C57.1342 132.325 57.8669 133.057 58.7708 133.057Z" fill="white"/>
<path d="M72.6824 141.778C73.5863 141.778 74.319 141.046 74.319 140.143C74.319 139.24 73.5863 138.508 72.6824 138.508C71.7785 138.508 71.0458 139.24 71.0458 140.143C71.0458 141.046 71.7785 141.778 72.6824 141.778Z" fill="white"/>
<path d="M76.7734 144.231C77.6773 144.231 78.41 143.499 78.41 142.596C78.41 141.693 77.6773 140.961 76.7734 140.961C75.8696 140.961 75.1368 141.693 75.1368 142.596C75.1368 143.499 75.8696 144.231 76.7734 144.231Z" fill="white"/>
<defs>
<linearGradient id="paint0_linear" x1="74.8639" y1="164.184" x2="74.8639" y2="7.63092" gradientUnits="userSpaceOnUse">
<stop stop-color="#9013FE"/>
<stop offset="1" stop-color="#4D00B4"/>
</linearGradient>
</defs>
</svg>
