<svg width="100" height="117" viewBox="0 0 100 117" fill="none" xmlns="http://www.w3.org/2000/svg">
    <path fill-rule="evenodd" clip-rule="evenodd" d="m47.61259,0.9042c1.545,-1.2056 3.703,-1.2056 5.248,0c16.479,12.8623 35.306,12.7586 42.414,12.7194c0.356,-0.002 0.682,-0.0038 0.978,-0.0038c1.148,0 2.248,0.4644 3.054,1.2891c0.805,0.8247 1.248,1.9405 1.23,3.0972c-0.334,20.683 -1.222,35.7149 -2.947,46.9569c-1.727,11.25 -4.339,19.042 -8.348,25.016c-4.037,6.016 -9.228,9.784 -15.236,13.406c-2.007,1.21 -4.071,2.387 -6.239,3.624c-4.478,2.553 -9.397,5.358 -15.157,9.219c-1.437,0.964 -3.309,0.964 -4.747,0c-5.751,-3.855 -10.661,-6.657 -15.129,-9.207c-2.175,-1.241 -4.246,-2.422 -6.258,-3.637c-6.004,-3.623 -11.186,-7.391 -15.215,-13.409c-4,-5.974 -6.604,-13.766 -8.324,-25.014c-1.719,-11.241 -2.602,-26.2725 -2.936,-46.9549c-0.019,-1.1567 0.424,-2.2725 1.229,-3.0972c0.806,-0.8247 1.906,-1.2891 3.054,-1.2891c0.292,0 0.616,0.0018 0.969,0.0038c7.051,0.0392 25.879,0.1439 42.36,-12.7194zm-38.964,21.3487c0.383,18.2961 1.248,31.5281 2.756,41.3931c1.626,10.63 3.954,17.013 6.959,21.502c2.977,4.445 6.874,7.427 12.515,10.831c1.716,1.035 3.627,2.127 5.711,3.317c3.981,2.274 8.588,4.906 13.647,8.182c5.069,-3.282 9.685,-5.917 13.673,-8.194c2.077,-1.185 3.984,-2.274 5.696,-3.306c5.648,-3.405 9.554,-6.387 12.538,-10.834c3.012,-4.489 5.347,-10.871 6.978,-21.5c1.514,-9.865 2.383,-23.0954 2.766,-41.3906c-8.733,-0.1268 -25.816,-1.4659 -41.651,-12.5822c-15.819,11.1048 -32.881,12.4526 -41.588,12.5817z" fill="#3375BB" />
</svg>
