<svg viewBox="0 0 24 24" xmlns="http://www.w3.org/2000/svg">
  <path fill-rule="evenodd" clip-rule="evenodd" d="M12 3.5a8.5 8.5 0 1 0 0 17 8.5 8.5 0 0 0 0-17zM2 12C2 6.477 6.477 2 12 2s10 4.477 10 10-4.477 10-10 10S2 17.523 2 12z" />
  <path fill-rule="evenodd" clip-rule="evenodd" d="M12 8a2.25 2.25 0 0 0-2.06 1.34.75.75 0 0 1-1.38-.58A3.75 3.75 0 0 1 15.75 10 3.75 3.75 0 0 1 12.75 13.66V14a.75.75 0 0 1-1.5 0v-.75a.75.75 0 0 1 .75-.75 2.25 2.25 0 0 0 0-4.5z" />
  <circle cx="12" cy="17" r="1" />
</svg>
